<svg xmlns="http://www.w3.org/2000/svg" version="1.1" xmlns:xlink="http://www.w3.org/1999/xlink" xmlns:svgjs="http://svgjs.com/svgjs" width="1440" height="2800" preserveAspectRatio="none" viewBox="0 0 1440 2800">
    <g mask="url(&quot;#SvgjsMask1002&quot;)" fill="none">
        <rect width="1440" height="2800" x="0" y="0" fill="url(#SvgjsLinearGradient1003)"></rect>
        <path d="M281.848,1407.589C372.759,1402.8,443.583,1338.747,489.789,1260.308C536.873,1180.379,560.307,1086.259,520.49,1002.473C474.678,906.072,388.49,818.35,281.848,822.746C179.616,826.96,123.687,930.836,75.01,1020.835C29.622,1104.753,-12.844,1200.287,32.149,1284.417C79.06,1372.133,182.514,1412.822,281.848,1407.589" fill="rgba(28, 83, 142, 0.4)" class="triangle-float2"></path>
        <path d="M589.983,2733.692C685.375,2735.417,761.775,2661.023,805.77,2576.364C846.216,2498.534,841.967,2407.564,799.283,2330.939C755.315,2252.008,680.293,2191.726,589.983,2188.988C495.111,2186.112,402.172,2233.808,357.486,2317.547C314.93,2397.295,343.219,2489.882,387.306,2568.794C432.835,2650.286,496.65,2732.004,589.983,2733.692" fill="rgba(28, 83, 142, 0.4)" class="triangle-float2"></path>
        <path d="M1118.467,1373.268C1238.186,1374.085,1347.037,1304.938,1405.62,1200.528C1462.97,1098.315,1457.474,974.347,1399.424,872.53C1340.792,769.692,1236.635,689.83,1118.467,696.879C1008.785,703.422,943.899,807.088,890.13,902.91C837.973,995.859,791.48,1100.771,838.026,1196.653C889.735,1303.17,1000.065,1372.46,1118.467,1373.268" fill="rgba(28, 83, 142, 0.4)" class="triangle-float3"></path>
        <path d="M328.59 210.81 a308.43 308.43 0 1 0 616.86 0 a308.43 308.43 0 1 0 -616.86 0z" fill="rgba(28, 83, 142, 0.4)" class="triangle-float2"></path>
        <path d="M1213.9432892300372 222.7548245119257L1429.2563655743554 288.5826380696347 1495.0841791320645 73.26956172531638 1279.7711027877463 7.441748167607386z" fill="rgba(28, 83, 142, 0.4)" class="triangle-float2"></path>
        <path d="M438.84 1971.69 a441.54 441.54 0 1 0 883.08 0 a441.54 441.54 0 1 0 -883.08 0z" fill="rgba(28, 83, 142, 0.4)" class="triangle-float1"></path>
        <path d="M96.64139544289253 2724.644408362183L476.275636584866 2487.9253752662407 134.22108439467613 2298.321440896595z" fill="rgba(28, 83, 142, 0.4)" class="triangle-float2"></path>
        <path d="M186.2694733985149 2351.7635719318964L-168.01885134468756 2446.694842434613-73.08758084197115 2800.983167177815 281.2007439012313 2706.0518966750988z" fill="rgba(28, 83, 142, 0.4)" class="triangle-float3"></path>
        <path d="M786.728,2823.508C904.599,2818.51,1001.049,2745.016,1065.179,2645.991C1136.985,2535.113,1195.654,2401.39,1136.631,2283.21C1072.707,2155.217,929.791,2087.274,786.728,2088.457C645.715,2089.623,514.979,2165.526,446.705,2288.915C380.464,2408.63,390.701,2556.033,464.129,2671.479C532.508,2778.986,659.432,2828.906,786.728,2823.508" fill="rgba(28, 83, 142, 0.4)" class="triangle-float2"></path>
        <path d="M1161.1161997723439 1911.0802444079707L1196.9763718360496 2252.2669908131984 1502.3029461775718 1875.220072344265z" fill="rgba(28, 83, 142, 0.4)" class="triangle-float1"></path>
        <path d="M498.2594422238353 256.7461123920905L186.954534428584 382.52145937256734 624.0347892043121 568.0510201873418z" fill="rgba(28, 83, 142, 0.4)" class="triangle-float2"></path>
        <path d="M118.29 1340.02 a403.28 403.28 0 1 0 806.56 0 a403.28 403.28 0 1 0 -806.56 0z" fill="rgba(28, 83, 142, 0.4)" class="triangle-float2"></path>
        <path d="M424.4793137771195 2564.2122181756363L561.5960146429651 2701.3289190414816 698.7127155088106 2427.0955173097905z" fill="rgba(28, 83, 142, 0.4)" class="triangle-float3"></path>
        <path d="M351.6524946869602 898.4272684938286L-30.979822776549668 788.7092170189678-140.69787425141038 1171.3415344824778 241.9344432120995 1281.0595859573384z" fill="rgba(28, 83, 142, 0.4)" class="triangle-float1"></path>
        <path d="M1595.0535292378947 1610.9943047492561L1623.6738241165085 1283.8628373662468 1296.5423567334992 1255.2425424876328 1267.9220618548854 1582.3740098706423z" fill="rgba(28, 83, 142, 0.4)" class="triangle-float2"></path>
        <path d="M611.625102172981 1188.7173360877173L315.3335674111096 1193.6066704970567 444.8538990284748 1417.942465471503z" fill="rgba(28, 83, 142, 0.4)" class="triangle-float1"></path>
        <path d="M-141.73 1920.66 a266.94 266.94 0 1 0 533.88 0 a266.94 266.94 0 1 0 -533.88 0z" fill="rgba(28, 83, 142, 0.4)" class="triangle-float1"></path>
        <path d="M346.5621932923593 1126.1888399753382L121.24310479356186 908.6007254622879 128.97407877930905 1351.5079284741357z" fill="rgba(28, 83, 142, 0.4)" class="triangle-float1"></path>
        <path d="M-4.621654927441433 2484.0233499343003L-69.99990445552103 2746.241186609471 192.21793221964944 2811.6194361375506 257.596181747729 2549.40159946238z" fill="rgba(28, 83, 142, 0.4)" class="triangle-float2"></path>
        <path d="M-58.16689855281461-85.59545483708266L74.10136616627636 241.77998829332566 401.4768092966847 109.51172357423468 269.2085445775937-217.86371955617363z" fill="rgba(28, 83, 142, 0.4)" class="triangle-float1"></path>
    </g>
    <defs>
        <mask id="SvgjsMask1002">
            <rect width="1440" height="2800" fill="#ffffff"></rect>
        </mask>
        <linearGradient x1="-23.61%" y1="12.14%" x2="123.61%" y2="87.86%" gradientUnits="userSpaceOnUse" id="SvgjsLinearGradient1003">
            <stop stop-color="#0e2a47" offset="0"></stop>
            <stop stop-color="rgba(13, 56, 112, 1)" offset="1"></stop>
        </linearGradient>
        <style>
            @keyframes float1 {
                0%{transform: translate(0, 0)}
                50%{transform: translate(-10px, 0)}
                100%{transform: translate(0, 0)}
            }

            .triangle-float1 {
                animation: float1 5s infinite;
            }

            @keyframes float2 {
                0%{transform: translate(0, 0)}
                50%{transform: translate(-5px, -5px)}
                100%{transform: translate(0, 0)}
            }

            .triangle-float2 {
                animation: float2 4s infinite;
            }

            @keyframes float3 {
                0%{transform: translate(0, 0)}
                50%{transform: translate(0, -10px)}
                100%{transform: translate(0, 0)}
            }

            .triangle-float3 {
                animation: float3 6s infinite;
            }
        </style>
    </defs>
</svg>